<?xml version="1.0" encoding="UTF-8" standalone="no"?>
<!-- Created with Inkscape (http://www.inkscape.org/) -->

<svg
   width="128mm"
   height="128mm"
   viewBox="0 0 128 128"
   version="1.1"
   id="svg5"
   inkscape:version="1.1 (ce6663b3b7, 2021-05-25)"
   sodipodi:docname="baume-de-soin.svg"
   xmlns:inkscape="http://www.inkscape.org/namespaces/inkscape"
   xmlns:sodipodi="http://sodipodi.sourceforge.net/DTD/sodipodi-0.dtd"
   xmlns="http://www.w3.org/2000/svg"
   xmlns:svg="http://www.w3.org/2000/svg">
  <sodipodi:namedview
     id="namedview7"
     pagecolor="#ffffff"
     bordercolor="#666666"
     borderopacity="1.0"
     inkscape:pageshadow="2"
     inkscape:pageopacity="0.0"
     inkscape:pagecheckerboard="0"
     inkscape:document-units="mm"
     showgrid="false"
     inkscape:zoom="1.0998546"
     inkscape:cx="216.84685"
     inkscape:cy="469.60753"
     inkscape:window-width="2504"
     inkscape:window-height="1376"
     inkscape:window-x="1976"
     inkscape:window-y="27"
     inkscape:window-maximized="1"
     inkscape:current-layer="layer1"
     width="128mm" />
  <defs
     id="defs2">
    <inkscape:path-effect
       effect="spiro"
       id="path-effect22333"
       is_visible="true"
       lpeversion="1" />
  </defs>
  <g
     inkscape:label="Calque 1"
     inkscape:groupmode="layer"
     id="layer1">
    <g
       id="g18423">
      <path
         style="fill:#ccc8bc;fill-opacity:1;stroke:#000000;stroke-width:0.536307px;stroke-linecap:butt;stroke-linejoin:miter;stroke-opacity:1"
         d="m 5.3631372,95.978192 c 0,0 0.9491463,5.773378 2.3465756,8.277948 1.3551585,2.4288 5.6362042,6.15246 5.6362042,6.15246 0,0 11.897567,7.31391 28.831287,7.5867 16.211381,0.26118 29.803222,-6.54694 29.803222,-6.54694 0,0 5.478873,-4.122 7.246712,-6.59917 1.76786,-2.47714 3.360345,-8.263793 3.360345,-8.263793 0,0 -8.482934,15.270853 -39.704583,13.796853 C 9.546022,108.80839 5.3631372,95.978192 5.3631372,95.978192 Z"
         id="path869"
         sodipodi:nodetypes="cscscscsc" />
      <path
         style="fill:#b9b192;fill-opacity:1;stroke:#000000;stroke-width:0.536307px;stroke-linecap:butt;stroke-linejoin:miter;stroke-opacity:1"
         d="M 1.767289,63.078438 1.5543598,59.146341 c 0,0 4.8020472,11.04886 40.9323852,12.201305 31.145495,0.993428 42.26378,-11.514075 42.26378,-11.514075 l 0.02189,5.324782 c 0,0 -11.165939,12.356208 -42.486951,11.301079 C 5.8636781,75.232474 1.767289,63.078438 1.767289,63.078438 Z"
         id="path2333"
         sodipodi:nodetypes="ccsccsc" />
      <path
         style="fill:#a18b62;fill-opacity:1;stroke:#000000;stroke-width:0.536307px;stroke-linecap:butt;stroke-linejoin:miter;stroke-opacity:1"
         d="m 85.628698,67.51858 c 0,0 9.658791,14.625059 13.798837,19.219678 9.000405,9.988663 10.934805,8.443712 10.934805,8.443712 0,0 4.57309,-6.153659 -16.441104,-36.434825 C 75.070998,31.584159 67.450325,30.243954 67.450325,30.243954 l -0.04378,2.073286 c 0,0 1.491865,0.05412 6.707331,3.997853 1.636714,1.23762 2.622905,4.034988 2.622905,4.034988 l 4.404468,1.873081 0.39733,5.61383 1.320767,1.574161 -0.01622,0.751871 -1.329969,0.694589 1.367042,1.984545 -1.765853,1.111074 1.303842,1.859825 -1.29395,1.851169 1.293119,0.856808 -0.309603,0.740014 0.812134,0.386263 -0.06953,1.486899 1.900689,-1.300639 0.02189,5.324782 z"
         id="path3299"
         sodipodi:nodetypes="cscsccsccccccccccccccccc" />
      <path
         style="fill:#938462;fill-opacity:1;stroke:#000000;stroke-width:0.536307px;stroke-linecap:butt;stroke-linejoin:miter;stroke-opacity:1"
         d="m 84.772943,65.158353 c 0.855755,2.360227 -2.18546,31.427044 -2.18546,31.427044 l 1.052656,-1.557823 c 0,0 7.39217,2.306066 11.264998,2.707248 10.408653,1.078197 12.511413,-1.022698 12.511413,-1.022698 l -0.31359,-2.583439 c 0,0 -6.75639,-5.3817 -12.014583,-13.176207 C 92.047162,76.44433 85.628698,67.51858 85.628698,67.51858 Z"
         id="path5291"
         sodipodi:nodetypes="cccsccscc" />
      <path
         style="fill:#d2d5bf;fill-opacity:1;stroke:#000000;stroke-width:0.536307px;stroke-linecap:butt;stroke-linejoin:miter;stroke-opacity:1"
         d="m 67.450325,30.243954 12.952731,-8.224357 c 0,0 15.224622,0.952483 30.835814,25.127347 17.62326,27.290646 13.25524,37.942642 13.25524,37.942642 0,0 -0.96226,2.065847 -5.90499,5.361612 -3.93372,2.622945 -8.22678,4.730772 -8.22678,4.730772 0,0 4.08037,-5.710092 -15.393373,-35.018648 C 77.684234,34.149254 67.450325,30.243954 67.450325,30.243954 Z"
         id="path6552"
         sodipodi:nodetypes="ccscscsc" />
      <path
         style="fill:#e5e1c9;fill-opacity:1;stroke:#000000;stroke-width:0.536307px;stroke-linecap:butt;stroke-linejoin:miter;stroke-opacity:1"
         d="m 80.403056,22.019597 2.859232,-0.801837 c 0,0 16.235523,2.479354 30.070602,24.797029 15.47571,24.964188 13.76239,35.399194 13.76239,35.399194 l -2.48663,3.798762 c 0,0 4.10798,-12.549157 -14.34081,-39.737561 C 95.270178,23.372775 80.403056,22.019597 80.403056,22.019597 Z"
         id="path7275"
         sodipodi:nodetypes="ccsccsc" />
      <path
         style="fill:#754e12;fill-opacity:1;stroke:#000000;stroke-width:0.536307px;stroke-linecap:butt;stroke-linejoin:miter;stroke-opacity:1"
         d="M 5.3631372,95.978192 1.767289,63.078438 c 0,0 5.12879,12.914664 40.902595,13.288806 33.125722,0.346453 42.103059,-11.208891 42.103059,-11.208891 0,0 0.377264,4.667165 -0.695237,15.480712 -1.184837,11.946249 -1.490223,15.946332 -1.490223,15.946332 0,0 -7.468932,15.306103 -39.435297,13.639633 C 9.0455095,108.447 5.3631372,95.978192 5.3631372,95.978192 Z"
         id="path7899"
         sodipodi:nodetypes="ccscscsc" />
      <path
         style="fill:#2f0f0e;fill-opacity:1;stroke:#000000;stroke-width:0.536307px;stroke-linecap:butt;stroke-linejoin:miter;stroke-opacity:1"
         d="m 2.1148023,66.47691 c 0,0 3.7311275,3.299758 6.061246,4.753617 2.3301167,1.453858 7.8370457,3.344736 7.8370457,3.344736 l 1.63434,29.546827 c 0,0 -4.862474,-2.4352 -6.982493,-4.12136 C 8.544924,98.314582 5.2271931,94.396471 5.2271931,94.396471 Z"
         id="path8979"
         sodipodi:nodetypes="csccscc" />
      <path
         style="fill:#53070f;fill-opacity:1;stroke:#000000;stroke-width:0.536307px;stroke-linecap:butt;stroke-linejoin:miter;stroke-opacity:1"
         d="m 17.849821,75.431788 1.519306,29.284882 c 0,0 11.537137,3.63735 28.163527,3.9803 16.538618,0.34112 26.520369,-6.22142 26.520369,-6.22142 l 1.935593,-29.181304 c 0,0 -10.419743,4.585315 -28.125198,5.143183 -15.871305,0.500079 -30.013597,-3.005641 -30.013597,-3.005641 z"
         id="path8981"
         sodipodi:nodetypes="ccsccsc" />
      <path
         style="fill:#6c3535;fill-opacity:1;stroke:#000000;stroke-width:0.536307px;stroke-linecap:butt;stroke-linejoin:miter;stroke-opacity:1"
         d="m 77.334984,72.400059 c 0,0 2.954176,-1.437501 4.174566,-2.343768 1.220369,-0.906267 3.403053,-2.522914 3.403053,-2.522914 0,0 -0.609536,9.738959 -0.993996,14.223553 -0.384459,4.484594 -1.312739,12.683972 -1.312739,12.683972 0,0 -1.419502,2.24627 -2.567204,3.37956 -1.147722,1.133311 -4.31911,3.420238 -4.31911,3.420238 z"
         id="path8983"
         sodipodi:nodetypes="cscscscc" />
      <path
         style="fill:#99722b;fill-opacity:1;stroke:#000000;stroke-width:0.536307px;stroke-linecap:butt;stroke-linejoin:miter;stroke-opacity:1"
         d="m 18.279703,81.290682 1.018986,18.980048 c 0,0 12.516462,4.38551 27.516268,3.84082 17.507256,-0.63576 27.421468,-6.191238 27.421468,-6.191238 L 75.546246,78.94813 c 0,0 -9.471274,4.747292 -28.068889,5.41932 -17.989211,0.650036 -29.197654,-3.076768 -29.197654,-3.076768 z"
         id="path12381"
         sodipodi:nodetypes="ccsccsc" />
      <path
         style="fill:#c8c6aa;fill-opacity:1;stroke:#000000;stroke-width:0.536307px;stroke-linecap:butt;stroke-linejoin:miter;stroke-opacity:1"
         d="M 1.5543598,59.146341 C 0.99720507,58.456434 1.5317791,56.486078 1.5317791,56.486078 L 4.305772,53.501173 V 52.545062 L 3.6255627,52.112786 3.6562311,50.880153 4.1705231,50.537105 4.2836089,49.673628 3.7534901,49.146266 3.5439054,47.606098 4.5511716,46.096233 4.8213207,40.646488 c 0,0 -3.1424632,10.169227 35.9132133,11.689571 26.538815,1.033096 40.406712,-10.112897 40.406712,-10.112897 l 0.39733,5.61383 1.320746,1.574161 -0.01622,0.751871 -1.32997,0.694589 1.367063,1.984545 -1.765873,1.111074 1.303841,1.859825 -1.293949,1.851169 1.293118,0.856808 -0.309602,0.740014 0.812134,0.386263 c 0,0 0.233185,1.093764 -0.06953,1.486899 C 73.209086,73.655273 15.728176,76.697258 1.5543598,59.146341 Z"
         id="path13347"
         sodipodi:nodetypes="scccccccccccsccccccccccccss" />
      <path
         style="fill:#958766;fill-opacity:1;stroke:#000000;stroke-width:0.536307px;stroke-linecap:butt;stroke-linejoin:miter;stroke-opacity:1"
         d="M 5.0699128,58.809516 C 12.84833,68.771787 60.344711,71.57923 80.118406,56.052687 c 0.447985,-0.351763 -0.32746,-0.96357 -0.32746,-0.96357 C 55.664208,71.930223 8.5164205,65.512184 5.871405,57.492296 5.7337116,57.074838 4.3640925,57.905539 4.3640925,57.905539 Z"
         id="path13819"
         sodipodi:nodetypes="sssscs" />
      <path
         style="fill:#8e805b;fill-opacity:1;stroke:#000000;stroke-width:0.529267px;stroke-linecap:butt;stroke-linejoin:miter;stroke-opacity:1"
         d="M 6.935958,55.120819 C 14.706847,64.931513 61.011105,66.824661 79.9587,50.920733 80.387976,50.560416 79.620821,49.963649 79.620821,49.963649 56.460471,67.265632 10.424337,61.755868 7.6903794,53.788438 7.5480442,53.373716 6.2308208,54.230606 6.2308208,54.230606 Z"
         id="path13819-6"
         sodipodi:nodetypes="sssscs" />
      <path
         style="fill:#a99b82;fill-opacity:1;stroke:#000000;stroke-width:0.525917px;stroke-linecap:butt;stroke-linejoin:miter;stroke-opacity:1"
         d="M 7.7811622,50.613057 C 15.453979,60.42375 61.173852,62.316898 79.882323,46.412971 80.306186,46.052653 79.54872,45.455887 79.54872,45.455887 56.680663,62.75787 11.225517,57.248105 8.5260629,49.280675 8.3855316,48.865953 7.0849235,49.722843 7.0849235,49.722843 Z"
         id="path13819-6-7"
         sodipodi:nodetypes="sssscs" />
      <path
         style="fill:#dcd5c4;stroke:#000000;stroke-width:0.536307px;stroke-linecap:butt;stroke-linejoin:miter;stroke-opacity:1;fill-opacity:1"
         d="M 4.8213207,40.646488 C 10.162934,30.307074 41.088548,27.728797 67.406542,32.31724 c 8.424496,3.11289 9.330236,8.032841 9.330236,8.032841 l 4.407326,1.887716 C 57.401258,59.411735 4.305772,52.545062 4.8213207,40.646488 Z"
         id="path18001"
         sodipodi:nodetypes="ccccc" />
      <path
         style="fill:#e3d7aa;fill-opacity:1;stroke:#000000;stroke-width:0.536307px;stroke-linecap:butt;stroke-linejoin:miter;stroke-opacity:1"
         d="m 9.6369792,40.562327 c 0,0 0.00851,9.572664 31.5740188,9.850078 33.054474,-0.06892 35.52578,-10.062507 35.52578,-10.062507 C 74.94652,37.023243 72.812546,34.293272 67.406542,32.31724 30.610174,27.226935 9.5091774,36.627655 9.6369792,40.562145 Z"
         id="path19651"
         sodipodi:nodetypes="cccccc" />
      <path
         style="fill:#a9813b;fill-opacity:1;stroke:#000000;stroke-width:0.536307px;stroke-linecap:butt;stroke-linejoin:miter;stroke-opacity:1"
         d="m 63.268097,36.432963 c -0.830458,0.06324 -1.633916,1.89033 -1.633916,1.89033 0,0 1.972464,0.83062 2.557433,1.662193 1.073332,1.525817 1.030786,3.598941 1.284686,5.447111 0.04743,0.345784 0.04338,1.04621 0.04338,1.04621 l 3.418154,-0.917679 c 0,0 2.577034,-0.973138 2.593534,-2.081536 0.05392,-3.619556 -4.653746,-7.321347 -8.263269,-7.046629 z"
         id="path20997"
         sodipodi:nodetypes="scssccss" />
      <path
         style="fill:#cdb37b;fill-opacity:1;stroke:#000000;stroke-width:0.536307px;stroke-linecap:butt;stroke-linejoin:miter;stroke-opacity:1"
         d="m 34.619714,48.232539 c -6.132,-3.725709 -5.858228,-7.129066 -5.858228,-7.129066 l -1.903395,0.796485 c 0,0 -1.649262,-0.704541 -2.525327,-0.852086 -1.005868,-0.169456 -2.076044,-0.294238 -3.059991,-0.02534 -0.738068,0.201685 -1.966615,1.183762 -1.966615,1.183762 0,0 0.0045,-2.395294 -0.892822,-2.720991 -1.129678,-0.41006 -2.925395,0.712791 -3.05974,1.907053 -0.179348,1.594248 2.007296,2.623432 3.416829,3.389594 4.75044,2.582122 9.540321,3.924071 15.849289,3.450586 z"
         id="path21435"
         sodipodi:nodetypes="cccsscsscc" />
      <path
         style="fill:#eee8c6;fill-opacity:1;stroke:#000000;stroke-width:0.536307px;stroke-linecap:butt;stroke-linejoin:miter;stroke-opacity:1"
         d="m 36.535692,37.410682 c 3.203352,-0.838323 5.66466,-0.192159 8.348861,0.0081 2.775233,0.207078 1.646119,-2.248114 2.863874,-2.269033 1.003785,-0.01824 2.42353,1.788191 2.42353,1.788191 l 6.571401,-1.581438 c 0,0 3.095903,5.906407 2.396267,7.735502 -0.373858,0.977394 -6.071545,-2.175042 -6.489389,-1.215627 -0.873531,2.005768 -5.63933,3.357649 -5.63933,3.357649 l -4.231159,3.470389 c 0,0 -2.446531,0.386365 -3.489405,-0.130538 -2.755811,-1.365928 -5.808864,-4.053717 -5.858225,-7.129066 -0.02722,-1.696388 3.103575,-4.034136 3.103575,-4.034136 z"
         id="path21437"
         sodipodi:nodetypes="cssccssccssc" />
      <path
         style="fill:#ceba88;fill-opacity:1;stroke:#000000;stroke-width:0.536307px;stroke-linecap:butt;stroke-linejoin:miter;stroke-opacity:1"
         d="m 25.931722,36.413098 c -0.06968,0.307226 -0.05431,0.631284 0.02832,0.935279 0.08264,0.303996 0.231313,0.588215 0.420813,0.839874 0.378999,0.503317 0.911939,0.870098 1.467641,1.167024 0.475766,0.254214 0.977988,0.46481 1.50428,0.583114 0.526291,0.118305 1.078203,0.142355 1.605222,0.02733 0.527018,-0.115022 1.028057,-0.373723 1.397147,-0.767107 0.36909,-0.393384 0.598421,-0.924842 0.590222,-1.464204 -0.0053,-0.345525 -0.10602,-0.686829 -0.272717,-0.989529 -0.166698,-0.3027 -0.398054,-0.567503 -0.6636,-0.788639 -0.531091,-0.442271 -1.187668,-0.705962 -1.849169,-0.906155 -0.798063,-0.241521 -1.649818,-0.400797 -2.463674,-0.219483 -0.406928,0.09066 -0.797969,0.267985 -1.115068,0.538646 -0.317099,0.270661 -0.557213,0.637267 -0.649422,1.043846 z"
         id="path22331"
         inkscape:path-effect="#path-effect22333"
         inkscape:original-d="m 25.931722,36.413098 c -1.409927,0.453803 1.278387,1.961985 1.916779,2.942177 0.63839,0.980171 3.39845,-1.080042 5.096871,-1.620863 1.698419,-0.540821 -1.856456,-1.789021 -2.785486,-2.684323 -0.929028,-0.895321 -2.818238,0.909207 -4.228164,1.363009 z" />
      <g
         aria-label="Baume de soin"
         id="text32471"
         style="font-size:2.82222px;line-height:1.25;stroke-width:0.264583"
         transform="matrix(2.0269902,0,0,2.0269902,-161.9923,-183.44432)">
        <path
           d="m 98.355114,133.63236 q -0.257693,0.0786 -0.412033,0.23289 v 0.10887 l -0.01929,0.1254 q 0,0.43408 -0.143316,0.75379 -0.04961,0.14607 0.03583,0.27009 v 0.0717 l -0.03583,0.0717 q -0.0028,0.10335 -0.03583,0.18052 v 0.14332 l -0.01792,0.0537 v 0.1254 l -0.03583,0.14332 q -0.02756,0.062 -0.03583,0.12678 0.363802,0.21773 0.735872,0.10748 0.574642,0.0579 0.773079,-0.41341 0.458886,-0.59807 -0.09095,-1.0418 0.563617,-0.46302 0.108865,-0.73587 l 0.01791,-0.0537 q -0.429948,-0.26734 -0.844737,-0.2701 z m 0.01792,0.55673 q 0.644921,-0.0207 0.323838,0.46716 -0.219107,0.0689 -0.377582,0.0717 v -0.0537 l 0.01791,-0.0537 v -0.0538 -0.0537 l 0.01791,-0.12678 q 0.0014,-0.11575 0.01792,-0.19706 z m 0.431325,0.89848 q 0.09646,0.23702 -0.05374,0.43133 -0.172255,0.31143 -0.520898,0.14331 -0.100597,-0.10748 0.03583,-0.46715 l 0.05374,-0.0179 0.05374,-0.0179 q 0.241156,-10e-4 0.431325,-0.0717 z"
           style="font-family:'Ninja Naruto';-inkscape-font-specification:'Ninja Naruto, Normal';text-align:center;text-anchor:middle;fill:#800000"
           id="path106884" />
        <path
           d="m 100.08983,134.24005 -0.143329,0.24942 -0.168117,0.50161 -0.158474,0.0965 -0.06752,0.1695 0.01791,0.17501 q -0.111621,0.22462 -0.192925,0.4451 l -0.03583,0.49885 q 0.115755,0.14332 0.249425,0.17777 l 0.177767,-0.17777 0.158475,-0.5581 0.412038,-0.0827 q -0.0937,0.5705 -0.0234,0.53743 l 0.12953,0.31695 q 0.71934,-1.10381 0.17777,-2.24344 l 0.0358,-0.14194 q -0.16123,-0.0854 -0.24943,-0.17777 z m 0.0138,1.08176 0.1502,-0.35829 0.0868,0.33899 z"
           style="font-family:'Ninja Naruto';-inkscape-font-specification:'Ninja Naruto, Normal';text-align:center;text-anchor:middle;fill:#800000"
           id="path106886" />
        <path
           d="m 102.20444,134.49567 -0.0413,0.11575 -0.0413,0.0951 -0.0207,0.0965 -0.0413,0.0965 -0.0413,0.0965 -0.0207,0.0965 -0.0207,0.13504 q -0.0551,0.10749 -0.0827,0.21084 -0.0303,0.22325 -0.14469,0.36656 0.006,0.13505 -0.0413,0.23013 -0.113,0.0882 -0.20533,-0.0386 l -0.062,-0.0965 v -0.0565 -0.0772 q 0.0289,-0.16123 0.0207,-0.2701 v -0.19292 l 0.0207,-0.38448 v -0.0579 q -0.0923,-0.16812 -0.10335,-0.3266 -0.0882,-0.0868 -0.18604,-0.11575 l -0.16674,0.19292 q -0.22875,0.73036 -0.13505,1.03628 l -0.008,0.36794 q -0.0179,0.17639 0,0.28939 0.21083,0.7152 0.88745,0.40376 l 0.19568,0.26183 q 0.24667,-0.0772 0.42306,-0.30041 l 0.0207,-0.0772 v -0.0579 q -0.0593,-0.2136 -0.0413,-0.38447 v -0.11576 q 0.0482,-0.11713 0.062,-0.21084 l 0.0207,-0.0965 q 0.0427,-0.11438 0.0413,-0.21222 l 0.0207,-0.0579 0.0413,-0.19293 q 0.15297,-0.37345 0.1447,-0.67248 -0.11024,-0.20809 -0.33073,-0.17363 l -0.0207,-0.0579 z"
           style="font-family:'Ninja Naruto';-inkscape-font-specification:'Ninja Naruto, Normal';text-align:center;text-anchor:middle;fill:#800000"
           id="path106888" />
        <path
           d="m 104.60925,134.2843 -0.24254,0.18741 q -0.0992,0.0992 -0.15021,0.16812 -0.1254,0.26872 -0.31832,0.41203 -0.19982,-0.27423 -0.42995,-0.41203 0,-0.14056 -0.0193,-0.22462 l -0.20533,-0.14883 q -0.13229,0.15848 -0.29903,0.0923 -0.0923,0.12954 -0.113,0.26321 0.10886,0.16536 0.0937,0.31695 v 0.0565 q -0.0262,0.0772 -0.0179,0.15021 l -0.0386,0.24254 q -0.006,0.14469 -0.0372,0.24391 0,0.25631 -0.0744,0.44924 l 0.0193,0.13091 q 0.0289,0.0689 0.0372,0.13092 l 0.0744,0.33761 0.0372,-0.0193 0.0937,-0.113 0.0744,-0.0923 0.0193,-0.0565 0.0193,-0.0565 0.11162,-0.22462 0.0372,-0.26183 v -0.0744 l 0.0193,-0.0386 0.0179,-0.16812 v -0.0551 -0.0565 l 0.0193,-0.0565 q 0.007,-0.15434 0.0372,-0.26183 0.25494,0.27561 0.28112,0.61736 0.0689,0.0854 0.0937,0.16812 l 0.0744,-0.0179 q 0.0193,-0.0331 0.0372,-0.0372 l 0.15021,-0.2632 0.0372,-0.0179 0.0372,-0.0193 0.0193,-0.0372 0.0372,-0.0179 q 0.0689,-0.0923 0.13091,-0.15021 0,0.20395 -0.0372,0.33624 v 0.0565 q -0.0703,0.26321 -0.0372,0.48645 l -0.0386,0.113 0.0386,0.41065 0.0744,0.0193 q 0.53468,-0.71107 0.46716,-1.70326 0.0551,-0.13505 0.0565,-0.24253 0.0634,-0.10336 0.0937,-0.18742 -0.04,-0.21359 -0.0193,-0.37482 -0.12126,-0.0482 -0.22462,-0.0372 z"
           style="font-family:'Ninja Naruto';-inkscape-font-specification:'Ninja Naruto, Normal';text-align:center;text-anchor:middle;fill:#800000"
           id="path106890" />
        <path
           d="m 105.34647,133.82402 q -0.0565,0.12954 -0.113,0.20533 l -0.0179,0.0372 q -0.0648,0.073 -0.0937,0.14883 0.0882,0.16949 0.0744,0.33624 -0.0262,0.24253 -0.14883,0.39136 -0.011,0.20257 0.0565,0.33624 l -0.0565,0.31695 -0.0193,0.13091 q -0.0427,0.27974 -0.0179,0.46716 0.18052,0.0634 0.35416,0.0372 h 0.0565 q 0.35002,0.12265 0.65319,0.0937 0.0703,-0.11851 0.0744,-0.22462 -0.1571,-0.11162 -0.22324,-0.26183 l -0.15021,-0.0179 q -0.17501,-0.0551 -0.29765,-0.0744 v -0.0565 l 0.0179,-0.0372 v -0.0565 l 0.0372,-0.14883 0.0372,-0.13091 h 0.0565 l 0.0372,-0.0179 h 0.14883 q 0.17777,-0.0262 0.29903,0 0.69591,-0.25218 0.0565,-0.48644 l -0.0937,0.0386 h -0.0565 l -0.20533,-0.0386 -0.18604,-0.0372 v -0.0551 l 0.0179,-0.0372 0.0193,-0.33624 0.0565,-0.0193 0.0744,-0.0179 h 0.14882 q 0.25494,-0.0634 0.42995,-0.0744 0.20395,-0.30593 -0.24253,-0.46716 l -0.113,0.0372 h -0.14883 -0.0565 l -0.0551,0.0193 -0.0372,-0.0193 -0.13091,-0.0179 h -0.0565 q -0.0882,-0.0193 -0.14883,-0.0193 z"
           style="font-family:'Ninja Naruto';-inkscape-font-specification:'Ninja Naruto, Normal';text-align:center;text-anchor:middle;fill:#800000"
           id="path106892" />
        <path
           d="m 96.841178,137.18557 q -0.09784,0.18741 -0.101974,0.37069 0.03307,0.0152 0.05099,0.0592 l -0.01654,0.2136 -0.01791,0.33211 -0.03307,0.31281 q -0.0317,0.1571 -0.03445,0.25356 -0.06339,0.2136 -0.05099,0.38998 -0.09922,0.0482 -0.151584,0.11714 -0.02756,0.22462 0,0.38998 0.0813,0.0689 0.135047,0.0978 h 0.05099 l 0.05099,-0.0193 h 0.05099 0.04961 q 0.09508,-0.0248 0.187413,-0.0193 0.09233,-0.0469 0.16812,-0.0593 0.942578,-0.007 1.084516,-0.95636 0.03445,-0.23564 -0.01792,-0.42857 -0.01929,-0.0193 -0.01654,-0.04 l -0.03307,-0.0386 -0.01792,-0.0579 q -0.08819,-0.11438 -0.135047,-0.21498 -0.07993,-0.0675 -0.118512,-0.11713 l -0.101974,-0.13642 q -0.151584,-0.10611 -0.237023,-0.23427 -0.100596,-0.0662 -0.151584,-0.1571 l -0.06752,0.0207 -0.03445,-0.0207 q -0.292143,-0.0772 -0.490581,-0.0579 z m 0.383095,0.62425 q 0.679372,0.2384 0.609092,1.01561 -0.318327,0.50987 -0.727604,0.0965 0.0028,-0.14745 0.03307,-0.25356 v -0.0579 q 0.03445,-0.15848 0.03445,-0.27286 l 0.01654,-0.0593 v -0.0579 -0.0593 l 0.01654,-0.0386 z"
           style="font-family:'Ninja Naruto';-inkscape-font-specification:'Ninja Naruto, Normal';text-align:center;text-anchor:middle;fill:#800000"
           id="path106894" />
        <path
           d="m 98.626402,137.70338 q -0.0565,0.12954 -0.112999,0.20533 l -0.01791,0.0372 q -0.06477,0.073 -0.09371,0.14883 0.08819,0.16949 0.07441,0.33624 -0.02618,0.24253 -0.148828,0.39136 -0.01102,0.20257 0.0565,0.33624 l -0.0565,0.31695 -0.01929,0.13091 q -0.04272,0.27974 -0.01792,0.46716 0.180523,0.0634 0.354156,0.0372 h 0.0565 q 0.350022,0.12265 0.65319,0.0937 0.07028,-0.11851 0.07441,-0.22462 -0.157096,-0.11162 -0.223242,-0.26183 l -0.150206,-0.0179 q -0.175011,-0.0551 -0.297656,-0.0744 v -0.0565 l 0.01791,-0.0372 v -0.0565 l 0.03721,-0.14883 0.03721,-0.13091 h 0.0565 l 0.03721,-0.0179 h 0.148828 q 0.177767,-0.0262 0.299034,0 0.695921,-0.25218 0.0565,-0.48644 l -0.09371,0.0386 h -0.0565 l -0.205327,-0.0386 -0.186035,-0.0372 v -0.0551 l 0.01791,-0.0372 0.01929,-0.33624 0.0565,-0.0193 0.07441,-0.0179 h 0.148828 q 0.254937,-0.0634 0.429948,-0.0744 0.203949,-0.30593 -0.242535,-0.46716 l -0.112999,0.0372 h -0.148828 -0.0565 l -0.05512,0.0193 -0.03721,-0.0193 -0.130913,-0.0179 h -0.0565 q -0.08819,-0.0193 -0.148828,-0.0193 z"
           style="font-family:'Ninja Naruto';-inkscape-font-specification:'Ninja Naruto, Normal';text-align:center;text-anchor:middle;fill:#800000"
           id="path106896" />
        <path
           d="m 101.45876,138.31962 q -0.85163,0.0854 -0.9164,0.73587 0.11851,0.5774 1.02388,0.75516 0.0841,0.0799 0.0896,0.17915 -0.2701,0.28112 -0.59256,0.37758 -0.17225,0.11162 -0.32384,0.14332 -0.0179,0.0207 -0.0358,0.0179 -0.19154,0.10749 -0.34175,0.14332 -0.12127,0.0758 -0.17915,0.16123 1.22232,0.15434 1.85071,-0.61047 0.31144,-0.78686 -0.89848,-1.04042 -0.0923,-0.0675 -0.14332,-0.1447 0.24116,-0.31557 0.66422,-0.2508 0.33899,-0.45475 -0.19706,-0.46715 z"
           style="font-family:'Ninja Naruto';-inkscape-font-specification:'Ninja Naruto, Normal';text-align:center;text-anchor:middle;fill:#800000"
           id="path106898" />
        <path
           d="m 103.20641,138.52679 q -0.0193,0.0345 -0.04,0.04 h -0.0592 -0.0606 q -0.23426,0.13781 -0.31832,0.0289 l -0.0758,0.0276 -0.10473,0.26321 -0.04,0.04 -0.19981,0.25907 -0.0207,0.0606 -0.0593,0.15985 -0.0207,0.0593 -0.13918,0.35967 0.0799,0.23978 q -0.14607,0.68764 0.4396,0.97978 0.11713,0.0303 0.2191,0.0193 0.98117,-0.42582 1.1989,-1.418 -0.0551,-0.86679 -0.79926,-1.11897 z m -0.11989,0.69866 q 0.27698,0.0565 0.34037,0.46027 -0.1695,0.53192 -0.55948,0.81855 -0.11989,-0.2508 -0.0799,-0.49885 -0.0386,-0.18741 -0.0207,-0.3197 l 0.0606,-0.0799 0.0992,-0.15985 q 0.11162,-0.11162 0.15986,-0.22049 z"
           style="font-family:'Ninja Naruto';-inkscape-font-specification:'Ninja Naruto, Normal';text-align:center;text-anchor:middle;fill:#800000"
           id="path106900" />
        <path
           d="m 104.65968,137.93365 q -0.17363,0.16261 -0.16674,0.38585 0.0551,0.10336 0.0744,0.20258 h 0.0551 q 0.20946,-0.0923 0.38585,-0.0923 v 0.0551 q -0.051,0.18052 -0.0551,0.31281 l -0.0372,0.11025 -0.0358,0.31281 -0.0193,0.0551 -0.0179,0.18328 -0.0179,0.0372 q -0.01,0.19844 -0.0372,0.33073 -0.40652,0.0868 -0.42306,-0.12954 -0.26596,0.1447 -0.27561,0.42306 l 0.073,0.0551 0.20257,0.0744 0.0551,0.0179 0.0372,0.0179 0.0551,0.0193 0.42306,0.11024 q 0.022,0.0317 0.0179,0.073 l 0.14745,-0.0179 0.12816,-0.0193 q 0.19568,0.0152 0.33073,-0.0358 0.0386,-0.0882 0.0551,-0.16537 -0.26734,-0.15571 -0.38585,-0.36793 l 0.0179,-0.0744 v -0.073 l 0.0193,-0.0923 v -0.0551 l 0.0179,-0.073 0.0179,-0.0551 v -0.073 l 0.0193,-0.0744 0.0179,-0.20119 0.0179,-0.0744 v -0.0551 l 0.0193,-0.0358 0.0551,-0.36793 q 0.51952,0.0138 0.49609,-0.31282 -0.0675,-0.12815 -0.12815,-0.20257 l -0.0551,-0.0179 -0.20258,-0.0372 q -0.10197,0.0138 -0.18465,0 l -0.0358,-0.0179 h -0.0551 -0.0551 -0.0551 l -0.0744,-0.0179 q -0.24253,0.0124 -0.42168,-0.0372 z"
           style="font-family:'Ninja Naruto';-inkscape-font-specification:'Ninja Naruto, Normal';text-align:center;text-anchor:middle;fill:#800000"
           id="path106902" />
        <path
           d="m 107.51995,137.27328 q -0.0248,0.0951 -0.0496,0.0923 l -0.0496,0.0496 q -0.0551,0.11575 -0.14883,0.16536 l -0.0496,0.0827 -0.0165,0.0496 q 0.0344,0.0606 0.0165,0.16537 l -0.0331,0.1819 -0.0165,0.0496 -0.0165,0.0827 -0.0165,0.0496 v 0.0496 l -0.0331,0.13229 q -0.0538,0.15434 -0.0662,0.26458 l -0.0331,-0.0496 q -0.0234,-0.0827 -0.0496,-0.13229 l -0.14883,-0.41341 q 0.0758,-0.1819 0.0496,-0.34727 -0.19155,-0.12953 -0.38034,-0.0661 -0.13091,0.0909 -0.19843,0.1819 l -0.0331,0.0827 q -0.0372,0.13643 -0.0331,0.31419 -0.0413,0.0909 -0.0827,0.14883 v 0.0661 l -0.0165,0.11575 -0.0165,0.11576 -0.0165,0.0992 -0.0165,0.0496 -0.0165,0.11575 v 0.11576 l -0.0165,0.0496 q -0.003,0.0951 -0.0165,0.16536 v 0.0496 q -0.0413,0.16399 -0.0496,0.28112 0.12265,0.11989 0.14883,0.26458 0.11162,-0.1378 0.24805,-0.19844 0.0317,-0.42167 0.21497,-0.7276 l 0.0331,0.0496 0.0331,0.0496 0.0165,0.0331 0.0661,0.11576 q 0.0758,0.26734 0.23151,0.44648 0.13505,0.0262 0.24805,0 0.54019,-0.67248 0.41341,-1.45521 0.0703,-0.50022 -0.0827,-0.85989 h -0.0165 0.0165 z"
           style="font-family:'Ninja Naruto';-inkscape-font-specification:'Ninja Naruto, Normal';text-align:center;text-anchor:middle;fill:#800000"
           id="path106904" />
      </g>
    </g>
  </g>
</svg>
