<?xml version="1.0" encoding="UTF-8" standalone="no"?>
<!-- Created with Inkscape (http://www.inkscape.org/) -->

<svg
   width="87.247459mm"
   height="90.283127mm"
   viewBox="0 0 87.247459 90.283127"
   version="1.1"
   id="svg955"
   inkscape:version="1.1.1 (eb90963e84, 2021-10-02)"
   sodipodi:docname="sacoche.svg"
   xmlns:inkscape="http://www.inkscape.org/namespaces/inkscape"
   xmlns:sodipodi="http://sodipodi.sourceforge.net/DTD/sodipodi-0.dtd"
   xmlns="http://www.w3.org/2000/svg"
   xmlns:svg="http://www.w3.org/2000/svg">
  <sodipodi:namedview
     id="namedview957"
     pagecolor="#ffffff"
     bordercolor="#666666"
     borderopacity="1.0"
     inkscape:pageshadow="2"
     inkscape:pageopacity="0.0"
     inkscape:pagecheckerboard="0"
     inkscape:document-units="mm"
     showgrid="false"
     fit-margin-top="0"
     fit-margin-left="0"
     fit-margin-right="0"
     fit-margin-bottom="0"
     inkscape:zoom="0.77771465"
     inkscape:cx="391.53178"
     inkscape:cy="561.25984"
     inkscape:window-width="2504"
     inkscape:window-height="1376"
     inkscape:window-x="4536"
     inkscape:window-y="27"
     inkscape:window-maximized="1"
     inkscape:current-layer="layer1" />
  <defs
     id="defs952" />
  <g
     inkscape:label="Calque 1"
     inkscape:groupmode="layer"
     id="layer1"
     transform="translate(-1.3816622,-0.12730956)">
    <g
       id="g3404"
       transform="matrix(0.26458333,0,0,0.26458333,-18.252167,-16.882473)">
      <g
         transform="translate(-340.9534,-205.35883)"
         id="g2613">
        <path
           style="fill:#c8beb7;fill-rule:evenodd;stroke:#000000;stroke-width:1px;stroke-linecap:butt;stroke-linejoin:miter;stroke-opacity:1"
           d="m 415.92175,443.74299 c 7.55853,84.91092 51.01772,132.07225 121.16793,152.57925 18.91252,5.52869 37.54255,12.23479 57.20169,13.83315 88.72293,4.34705 139.75441,-56.06916 148.68364,-145.59389 10.81969,-109.31003 -39.95966,-172.79269 -131.82757,-189.56094 -62.56879,-10.9509 -107.52595,-2.82652 -138.40928,18.88765 -41.9276,29.47942 -57.91559,84.00633 -56.81641,149.85478 z"
           id="path2584"
           sodipodi:nodetypes="cscccsc" />
        <path
           style="fill:#c8beb7;fill-rule:evenodd;stroke:#000000;stroke-width:1px;stroke-linecap:butt;stroke-linejoin:miter;stroke-opacity:1"
           d="m 473.71062,293.69721 c -37.30798,61.46754 -33.95413,158.63043 -5.91293,224.2932 12.36538,26.096 39.00946,59.13579 70.51513,78.54643"
           id="path2588"
           sodipodi:nodetypes="ccc" />
        <path
           style="fill:none;fill-rule:evenodd;stroke:#000000;stroke-width:1px;stroke-linecap:butt;stroke-linejoin:miter;stroke-opacity:1"
           d="m 489.3748,285.59188 c -34.46687,64.22691 -38.31262,151.28884 -11.80618,219.59818 15.34209,35.3277 45.06134,82.94724 92.08703,101.02058"
           id="path2593"
           sodipodi:nodetypes="ccc" />
        <path
           style="fill:#c8beb7;fill-rule:evenodd;stroke:#000000;stroke-width:1px;stroke-linecap:butt;stroke-linejoin:miter;stroke-opacity:1"
           d="m 503.77838,278.27404 c 26.15125,68.19647 38.61638,84.72486 80.9617,152.39149 44.43621,6.35496 59.41046,8.60285 90.46443,7.52458 28.79462,-22.66351 43.68466,-37.16841 61.73987,-60.24765"
           id="path2595"
           sodipodi:nodetypes="cccc" />
        <path
           style="fill:none;fill-rule:evenodd;stroke:#000000;stroke-width:1px;stroke-linecap:butt;stroke-linejoin:miter;stroke-opacity:1"
           d="m 730.55012,363.29603 c -15.53734,18.03849 -33.15876,34.65831 -60.26441,61.13746 -23.18077,1.94561 -41.4504,1.6126 -77.25917,-5.6917 -33.34527,-47.01388 -32.93259,-54.25401 -76.54652,-144.22705"
           id="path2597"
           sodipodi:nodetypes="cccc" />
        <ellipse
           style="opacity:1;fill:#c8beb7;fill-opacity:1;fill-rule:nonzero;stroke:#000000;stroke-width:2;stroke-linecap:round;stroke-miterlimit:4;stroke-dasharray:none;stroke-opacity:1"
           id="path2601"
           transform="matrix(1.1364509,0.2149199,-0.05847666,0.5734275,80.707781,62.254305)"
           cx="505.79785"
           cy="402.30988"
           rx="12.24802"
           ry="16.784323" />
        <path
           style="opacity:0.805054;fill:#1a1a1a;fill-opacity:1;fill-rule:nonzero;stroke:none;stroke-width:0.863845;stroke-linecap:round;stroke-miterlimit:4;stroke-dasharray:none;stroke-opacity:0.427386"
           d="m 465.61116,348.39311 c 0.56824,-3.83925 3.64671,-15.0423 6.0789,-22.12211 3.40841,-9.92146 7.2803,-18.86775 13.40448,-30.97209 2.90569,-5.74303 5.18493,-10.54 5.06499,-10.65994 -0.30412,-0.30412 2.47202,-1.67175 7.48374,-3.68677 7.04053,-2.83071 5.82422,-3.73392 10.25849,7.61778 4.69979,12.03142 13.30089,32.25452 16.0256,37.67974 1.10599,2.20216 1.85082,4.1435 1.65518,4.31411 -21.96701,24.44266 -47.69633,21.78253 -60.27503,19.88092 z"
           id="path2611"
           sodipodi:nodetypes="cssssssccc" />
        <path
           style="fill:#1a1a1a;fill-opacity:0.101961;fill-rule:evenodd;stroke:#1a1a1a;stroke-width:1px;stroke-linecap:butt;stroke-linejoin:miter;stroke-opacity:0.101961"
           d="m 415.70149,441.64666 c 7.55853,84.91092 52.29614,133.77681 122.44635,154.28381 18.91252,5.52869 37.54255,11.38251 57.20169,12.98087 52.3059,4.18862 94.18556,-26.57658 95.2459,-30.46789 -67.88725,17.75844 -114.53123,2.12386 -134.12403,-15.9055 -69.44707,-63.90542 -77.4346,-173.95955 -68.95432,-278.13197 -52.26786,29.47942 -72.91477,91.39223 -71.81559,157.24068 z"
           id="path3396"
           sodipodi:nodetypes="csccscc" />
        <path
           sodipodi:nodetypes="ccccssscccc"
           id="path3402"
           d="m 465.51424,358.33824 c 0.30469,-1.56106 0.73861,-3.82079 0.96425,-5.02162 l 0.41024,-2.18331 11.98669,-0.0825 c 10.95459,-0.0754 12.64313,-0.30966 19.61067,-2.72101 8.94652,-3.09629 15.55858,-6.91412 22.17412,-12.80353 2.62805,-2.33959 4.90949,-4.10808 5.06986,-3.92997 0.16036,0.17814 1.31249,2.35655 2.56027,4.84094 l 2.26867,4.51707 c -27.43921,19.59851 -33.66119,21.49495 -65.59881,20.22225 z"
           style="opacity:0.805054;fill:#1a1a1a;fill-opacity:0.101961;fill-rule:nonzero;stroke:#000000;stroke-width:1;stroke-linecap:round;stroke-miterlimit:4;stroke-dasharray:none;stroke-opacity:1" />
      </g>
      <path
         id="path2622"
         d="m 300.34364,231.44708 c -8.45112,-0.57977 -30.93362,-3.27883 -47.42076,-5.69294 l -8.64478,-1.26581 -14.15489,-22.527 C 198.6211,151.8268 188.25943,132.64636 173.86397,97.820133 c -8.3233,-20.13616 -9.64218,-23.71105 -8.96857,-24.30976 0.75923,-0.67482 9.90271,-3.25061 10.25965,-2.89024 0.13153,0.13281 9.91268,20.51576 21.73589,45.295457 26.13286,54.77067 32.13356,65.78033 49.22302,90.3109 l 5.51846,7.92131 11.24562,2.03092 c 19.97206,3.60686 29.15583,4.46679 46.69798,4.37255 8.93694,-0.048 17.32256,-0.34509 18.63471,-0.66018 1.79316,-0.43058 7.91612,-6.07646 24.65137,-22.73059 12.2461,-12.18674 25.53929,-25.71192 29.54041,-30.05596 4.00111,-4.34403 7.47183,-7.57939 7.7127,-7.18967 0.24086,0.38972 1.3668,3.45657 2.50209,6.81523 l 2.06419,6.10665 -8.31915,9.98839 c -10.08548,12.10912 -24.69993,26.30423 -40.71564,39.54734 l -11.93767,9.87105 -12.4358,-0.10688 c -6.83969,-0.0588 -16.25801,-0.36909 -20.92959,-0.68957 z"
         style="opacity:1;fill:#1a1a1a;fill-opacity:0.103734;fill-rule:nonzero;stroke:none;stroke-width:1.47718;stroke-linecap:round;stroke-miterlimit:4;stroke-dasharray:none;stroke-opacity:0.101961" />
      <path
         id="path3394"
         d="m 204.94406,392.78111 c -3.69487,-1.1462 -8.45193,-3.34454 -11.43839,-5.28594 -27.77827,-18.05772 -56.96913,-52.78294 -68.25175,-81.19174 -14.02783,-35.32105 -21.04636,-81.02859 -18.55111,-120.81266 2.30782,-36.79631 9.9644,-66.18536 23.75214,-91.170737 3.28171,-5.94695 3.71664,-6.3999 9.48044,-9.87348 3.32254,-2.00232 6.19299,-3.48855 6.37883,-3.30271 0.18584,0.18584 -1.28865,3.798 -3.27665,8.02702 -9.33102,19.849487 -18.29132,45.819667 -18.96211,54.958867 -0.1789,2.43735 -0.80739,7.09046 -1.39668,10.34026 -2.92724,16.14322 -3.70876,26.4151 -3.70876,48.74695 -1e-5,17.12108 0.30488,24.50812 1.34129,32.49796 4.12766,31.82069 10.4428,54.34517 21.53606,76.81337 17.44453,35.33202 39.60856,61.8168 65.72935,78.54298 3.2498,2.08096 5.41018,3.75852 4.80084,3.72786 -0.60934,-0.0306 -3.9544,-0.93876 -7.43349,-2.01801 z"
         style="opacity:1;fill:#1a1a1a;fill-opacity:0.103734;fill-rule:nonzero;stroke:none;stroke-width:1.47718;stroke-linecap:round;stroke-miterlimit:4;stroke-dasharray:none;stroke-opacity:0.101961" />
    </g>
  </g>
</svg>
